<svg xmlns="http://www.w3.org/2000/svg" viewBox="0 0 100 100">
  <rect width="100" height="100" rx="8" fill="#050a30"/>
  <polygon fill="white" points="
    85.5,43.7  93.8,46.2  93.8,53.8  85.5,56.3
    83.8,62.3  89.9,68.6  86.0,75.3  77.6,73.2
    73.2,77.6  75.3,86.0  68.6,89.9  62.3,83.8
    56.3,85.5  53.8,93.8  46.2,93.8  43.7,85.5
    37.7,83.8  31.4,89.9  24.7,86.0  26.9,77.6
    22.4,73.2  14.0,75.3  10.1,68.6  16.2,62.3
    14.5,56.3   6.2,53.8   6.2,46.2  14.5,43.7
    16.2,37.7  10.1,31.4  14.0,24.7  22.4,26.9
    26.9,22.4  24.7,14.0  31.4,10.1  37.7,16.2
    43.7,14.5  46.2,6.2   53.8,6.2   56.3,14.5
    62.3,16.2  68.6,10.1  75.3,14.0  73.2,22.4
    77.6,26.9  86.0,24.7  89.9,31.4  83.8,37.7
  "/>
  <circle cx="50" cy="50" r="28" fill="#050a30"/>
  <circle cx="50" cy="50" r="22" fill="white"/>
  <circle cx="50" cy="50" r="17" fill="#050a30"/>
  <text x="50" y="51" text-anchor="middle" dominant-baseline="middle" font-family="Georgia, 'Times New Roman', serif" font-size="21" font-weight="bold" fill="white">E</text>
</svg>
